<svg xmlns="http://www.w3.org/2000/svg" viewBox="0 0 1600 690">
<defs>
  <linearGradient id="bg" x1="0" y1="0" x2="1" y2="1"><stop stop-color="#061b36"/><stop offset="1" stop-color="#0e3157"/></linearGradient>
  <linearGradient id="floor" x1="0" y1="0" x2="0" y2="1"><stop stop-color="#20364a"/><stop offset="1" stop-color="#0a1724"/></linearGradient>
  <linearGradient id="drum" x1="0" y1="0" x2="1" y2="0"><stop stop-color="#063a75"/><stop offset=".24" stop-color="#0b64b8"/><stop offset=".55" stop-color="#0b53a1"/><stop offset=".82" stop-color="#0a3f7f"/><stop offset="1" stop-color="#042b5d"/></linearGradient>
  <linearGradient id="rim" x1="0" y1="0" x2="1" y2="0"><stop stop-color="#072b55"/><stop offset=".5" stop-color="#3f8fd1"/><stop offset="1" stop-color="#041f42"/></linearGradient>
  <filter id="shadow"><feGaussianBlur stdDeviation="10"/></filter>
<filter id="grain"><feTurbulence baseFrequency=".75" numOctaves="2" seed="8" type="fractalNoise"/><feColorMatrix type="saturate" values="0"/><feComponentTransfer><feFuncA type="table" tableValues="0 .045"/></feComponentTransfer></filter>
<linearGradient id="shine" x1="0" y1="0" x2="1" y2="0"><stop stop-color="#fff" stop-opacity=".02"/><stop offset=".42" stop-color="#fff" stop-opacity=".22"/><stop offset=".62" stop-color="#fff" stop-opacity=".04"/><stop offset="1" stop-color="#000" stop-opacity=".18"/></linearGradient>
</defs>
<rect width="1600" height="690" fill="url(#bg)"/>
<path d="M0 470 1600 390v300H0z" fill="url(#floor)"/>
<g opacity=".28">
  <rect x="300" y="80" width="1100" height="12" fill="#153d61"/>
  <rect x="240" y="150" width="1200" height="8" fill="#153d61"/>
  <rect x="180" y="220" width="1300" height="6" fill="#153d61"/>
</g>
<g id="pallet" fill="#a87535"><rect x="0" y="0" width="250" height="25"/><rect x="18" y="22" width="32" height="28"/><rect x="198" y="22" width="32" height="28"/></g>
<g id="barrel">
  <ellipse cx="70" cy="16" rx="70" ry="16" fill="url(#rim)"/>
  <rect y="16" width="140" height="205" rx="8" fill="url(#drum)"/>
  <rect y="16" width="140" height="205" rx="8" fill="url(#shine)"/>
  <path d="M8 60h124M8 166h124" stroke="#7db7e8" stroke-opacity=".32" stroke-width="3"/>
  <ellipse cx="70" cy="221" rx="70" ry="16" fill="#052b5a"/>
  <rect y="34" width="140" height="10" fill="#123d6e" opacity=".8"/>
  <rect y="180" width="140" height="10" fill="#123d6e" opacity=".85"/>
  <rect x="39" y="72" width="62" height="70" rx="2" fill="#e5e7e6"/>
  <path d="M48 83h44v16H48z" fill="#d7d9d8"/>
  <path d="m55 108 10-17 10 17z" fill="#e43a25"/><path d="m78 108 10-17 10 17z" fill="#ddd"/>
  <rect x="49" y="120" width="43" height="5" fill="#374151"/><rect x="49" y="129" width="36" height="4" fill="#6b7280"/>
</g>
<g opacity=".55" transform="translate(720 145) scale(.56)"><use href="#barrel" x="0"/><use href="#barrel" x="150"/><use href="#barrel" x="300"/><use href="#barrel" x="450"/></g>
<g opacity=".7" transform="translate(800 190) scale(.72)"><use href="#barrel" x="0"/><use href="#barrel" x="150"/><use href="#barrel" x="300"/><use href="#barrel" x="450"/></g>
<g transform="translate(810 245) scale(.92)"><use href="#barrel" x="0"/><use href="#barrel" x="150"/><use href="#barrel" x="300"/><use href="#barrel" x="450"/></g>
<g transform="translate(720 265)"><use href="#barrel" x="0"/><use href="#barrel" x="155"/><use href="#barrel" x="310"/><use href="#barrel" x="465"/><use href="#barrel" x="620"/></g>
<g transform="translate(700 487)"><use href="#pallet" x="0"/><use href="#pallet" x="310"/><use href="#pallet" x="620"/></g>
<ellipse cx="1130" cy="595" rx="500" ry="40" fill="#000" opacity=".35" filter="url(#shadow)"/>
<rect width="1600" height="690" filter="url(#grain)" opacity=".35"/></svg>