<svg xmlns="http://www.w3.org/2000/svg" viewBox="0 0 760 300" fill="none">
<defs><pattern id="dots" width="8" height="8" patternUnits="userSpaceOnUse"><circle cx="2" cy="2" r="1.35" fill="#9fc8ec"/></pattern><filter id="shadow"><feDropShadow dx="0" dy="3" stdDeviation="4" flood-color="#006fe8" flood-opacity=".3"/></filter></defs>
<g fill="url(#dots)" opacity=".95">
<path d="M34 79 70 46l58-24 73 8 47 35-3 28-39 10-24 31-38 9-32-18-25 8-30-20Z"/>
<path d="m183 153 44 13 30 31-7 38-20 52-25-21-13-45-23-36Z"/>
<path d="m294 68 35-25 62 1 37 22-18 25-49 5-21 23-37-5-22-23Z"/>
<path d="m349 124 54 5 40 38-12 59-34 52-28-23-9-45-32-42Z"/>
<path d="m414 66 63-37 102 10 103 40 41 33-22 25-55-5-42 19-46-10-31 19-42-28-38-3-32-28Z"/>
<path d="m604 213 50-20 53 21 14 31-42 25-57-5-32-24Z"/>
</g>
<g stroke="#168bff" stroke-width="1.6" opacity=".7"><path d="M119 90Q358 8 572 105"/><path d="M213 185Q390 82 656 228"/><path d="M389 165Q489 107 572 105"/></g>
<g filter="url(#shadow)"><g fill="#fff" stroke="#087dff" stroke-width="4"><circle cx="119" cy="90" r="8"/><circle cx="213" cy="185" r="8"/><circle cx="389" cy="165" r="8"/><circle cx="572" cy="105" r="8"/><circle cx="656" cy="228" r="8"/><circle cx="486" cy="116" r="8"/></g><g fill="#087dff"><circle cx="119" cy="90" r="3"/><circle cx="213" cy="185" r="3"/><circle cx="389" cy="165" r="3"/><circle cx="572" cy="105" r="3"/><circle cx="656" cy="228" r="3"/><circle cx="486" cy="116" r="3"/></g></g>
</svg>
