<svg xmlns="http://www.w3.org/2000/svg" width="1800" height="820" viewBox="0 0 1800 820">
  <defs>
    <linearGradient id="g" x1="0" y1="0" x2="1" y2="1">
      <stop offset="0" stop-color="#06152f"/>
      <stop offset="0.45" stop-color="#0a2548"/>
      <stop offset="1" stop-color="#103c67"/>
    </linearGradient>
    <pattern id="grid" width="28" height="28" patternUnits="userSpaceOnUse">
      <path d="M 28 0 L 0 0 0 28" fill="none" stroke="#ffffff" stroke-opacity="0.045" stroke-width="1"/>
    </pattern>
    <filter id="blur"><feGaussianBlur stdDeviation="2"/></filter>
  </defs>
  <rect width="1800" height="820" fill="url(#g)"/>
  <rect width="1800" height="820" fill="url(#grid)"/>
  <g opacity="0.34" transform="translate(880 120)">
    <path d="M280 430 L840 320 L1010 380 L450 510 Z" fill="#0d2e55" stroke="#8fdfff" stroke-opacity="0.16"/>
    <path d="M360 330 L780 250 L945 300 L520 390 Z" fill="#123d68" stroke="#8fdfff" stroke-opacity="0.12"/>
    <g fill="none" stroke="#9bdcff" stroke-opacity="0.18" stroke-width="2">
      <path d="M340 430 C420 380 520 360 650 370 C750 378 845 350 970 300"/>
      <path d="M310 470 C450 445 585 435 715 455 C820 470 910 420 1020 365"/>
    </g>
    <g opacity="0.8">
      <rect x="150" y="330" width="110" height="220" rx="8" fill="#0e3159"/>
      <rect x="175" y="295" width="60" height="250" rx="5" fill="#143d68"/>
      <rect x="190" y="260" width="30" height="285" rx="4" fill="#1b517c"/>
      <ellipse cx="205" cy="550" rx="75" ry="18" fill="#06152f" opacity="0.5"/>
    </g>
    <g fill="#1c5c86" opacity="0.72">
      <rect x="520" y="520" width="66" height="30"/><rect x="590" y="520" width="66" height="30"/><rect x="660" y="520" width="66" height="30"/>
      <rect x="555" y="486" width="66" height="30"/><rect x="625" y="486" width="66" height="30"/><rect x="695" y="486" width="66" height="30"/>
      <rect x="610" y="452" width="66" height="30"/><rect x="680" y="452" width="66" height="30"/>
    </g>
    <g fill="none" stroke="#8fdfff" stroke-opacity="0.18" stroke-width="2">
      <path d="M1020 190 L1020 540"/><path d="M945 250 L1090 250"/><path d="M1020 190 L945 250 L1090 250 Z"/>
      <path d="M1030 250 L1180 390"/><path d="M1010 250 L885 392"/>
    </g>
  </g>
  <g opacity="0.23" filter="url(#blur)">
    <circle cx="1320" cy="335" r="160" fill="#1fa3c9"/>
    <circle cx="1460" cy="520" r="210" fill="#0d79a1"/>
  </g>
  <rect width="1800" height="820" fill="#00122f" opacity="0.18"/>
</svg>
